<svg width="1280" height="720" xmlns="http://www.w3.org/2000/svg" xmlns:xlink="http://www.w3.org/1999/xlink" overflow="hidden"><defs><filter id="fx0" x="-10%" y="-10%" width="120%" height="120%" filterUnits="userSpaceOnUse" primitiveUnits="userSpaceOnUse"><feComponentTransfer color-interpolation-filters="sRGB"><feFuncR type="discrete" tableValues="0 0"/><feFuncG type="discrete" tableValues="0 0"/><feFuncB type="discrete" tableValues="0 0"/><feFuncA type="linear" slope="0.631373" intercept="0"/></feComponentTransfer><feGaussianBlur stdDeviation="2 2"/></filter><filter id="fx1" x="-10%" y="-10%" width="120%" height="120%" filterUnits="userSpaceOnUse" primitiveUnits="userSpaceOnUse"><feComponentTransfer color-interpolation-filters="sRGB"><feFuncR type="discrete" tableValues="0 0"/><feFuncG type="discrete" tableValues="0 0"/><feFuncB type="discrete" tableValues="0 0"/><feFuncA type="linear" slope="0.631373" intercept="0"/></feComponentTransfer><feGaussianBlur stdDeviation="2 2"/></filter><filter id="fx2" x="-10%" y="-10%" width="120%" height="120%" filterUnits="userSpaceOnUse" primitiveUnits="userSpaceOnUse"><feComponentTransfer color-interpolation-filters="sRGB"><feFuncR type="discrete" tableValues="0 0"/><feFuncG type="discrete" tableValues="0 0"/><feFuncB type="discrete" tableValues="0 0"/><feFuncA type="linear" slope="0.631373" intercept="0"/></feComponentTransfer><feGaussianBlur stdDeviation="2 2"/></filter><filter id="fx3" x="-10%" y="-10%" width="120%" height="120%" filterUnits="userSpaceOnUse" primitiveUnits="userSpaceOnUse"><feComponentTransfer color-interpolation-filters="sRGB"><feFuncR type="discrete" tableValues="0 0"/><feFuncG type="discrete" tableValues="0 0"/><feFuncB type="discrete" tableValues="0 0"/><feFuncA type="linear" slope="0.631373" intercept="0"/></feComponentTransfer><feGaussianBlur stdDeviation="2 2"/></filter><filter id="fx4" x="-10%" y="-10%" width="120%" height="120%" filterUnits="userSpaceOnUse" primitiveUnits="userSpaceOnUse"><feComponentTransfer color-interpolation-filters="sRGB"><feFuncR type="discrete" tableValues="0 0"/><feFuncG type="discrete" tableValues="0 0"/><feFuncB type="discrete" tableValues="0 0"/><feFuncA type="linear" slope="0.631373" intercept="0"/></feComponentTransfer><feGaussianBlur stdDeviation="2 2"/></filter><radialGradient cx="12191999" cy="6858000" r="13988461" fx="12192000" fy="6858000" gradientUnits="userSpaceOnUse" spreadMethod="pad" id="fill5" gradientTransform="scale(0.000104987 0.000104987)"><stop offset="0" stop-color="#C5E0B4"/><stop offset="0.2" stop-color="#2F5597"/><stop offset="0.445" stop-color="#7F7F7F"/><stop offset="0.69" stop-color="#00B050"/><stop offset="1" stop-color="#00B050"/></radialGradient><linearGradient x1="214" y1="481" x2="214" y2="220" gradientUnits="userSpaceOnUse" spreadMethod="reflect" id="fill6"><stop offset="0"/><stop offset="0.48" stop-color="#080808"/><stop offset="1" stop-color="#666666"/></linearGradient><linearGradient x1="642.5" y1="481" x2="642.5" y2="220" gradientUnits="userSpaceOnUse" spreadMethod="reflect" id="fill7"><stop offset="0"/><stop offset="0.48" stop-color="#080808"/><stop offset="1" stop-color="#666666"/></linearGradient><linearGradient x1="1071" y1="481" x2="1071" y2="220" gradientUnits="userSpaceOnUse" spreadMethod="reflect" id="fill8"><stop offset="0"/><stop offset="0.48" stop-color="#080808"/><stop offset="1" stop-color="#666666"/></linearGradient><linearGradient x1="974" y1="93" x2="974" y2="7" gradientUnits="userSpaceOnUse" spreadMethod="reflect" id="fill9"><stop offset="0"/><stop offset="0.48" stop-color="#080808"/><stop offset="1" stop-color="#666666"/></linearGradient><linearGradient x1="642.5" y1="499" x2="642.5" y2="713" gradientUnits="userSpaceOnUse" spreadMethod="reflect" id="fill10"><stop offset="0" stop-color="#454545"/><stop offset="0.5"/><stop offset="1"/></linearGradient><linearGradient x1="166.5" y1="102" x2="166.5" y2="202" gradientUnits="userSpaceOnUse" spreadMethod="reflect" id="fill11"><stop offset="0" stop-color="#454545"/><stop offset="0.5"/><stop offset="1"/></linearGradient><linearGradient x1="485.5" y1="102" x2="485.5" y2="202" gradientUnits="userSpaceOnUse" spreadMethod="reflect" id="fill12"><stop offset="0" stop-color="#454545"/><stop offset="0.5"/><stop offset="1"/></linearGradient><linearGradient x1="798" y1="102" x2="798" y2="202" gradientUnits="userSpaceOnUse" spreadMethod="reflect" id="fill13"><stop offset="0" stop-color="#454545"/><stop offset="0.5"/><stop offset="1"/></linearGradient><linearGradient x1="1119" y1="102" x2="1119" y2="202" gradientUnits="userSpaceOnUse" spreadMethod="reflect" id="fill14"><stop offset="0" stop-color="#454545"/><stop offset="0.5"/><stop offset="1"/></linearGradient></defs><g><rect x="0" y="0" width="1280" height="720" fill="url(#fill5)"/><path d="M15 236.759C15 227.503 22.5031 220 31.7587 220L396.241 220C405.497 220 413 227.503 413 236.759L413 464.241C413 473.497 405.497 481 396.241 481L31.7587 481C22.5031 481 15 473.497 15 464.241Z" fill="url(#fill6)" fill-rule="evenodd"/><path d="M431 236.759C431 227.503 438.503 220 447.759 220L837.241 220C846.497 220 854 227.503 854 236.759L854 464.241C854 473.497 846.497 481 837.241 481L447.759 481C438.503 481 431 473.497 431 464.241Z" fill="url(#fill7)" fill-rule="evenodd"/><path d="M872 236.759C872 227.503 879.503 220 888.759 220L1253.24 220C1262.5 220 1270 227.503 1270 236.759L1270 464.241C1270 473.497 1262.5 481 1253.24 481L888.759 481C879.503 481 872 473.497 872 464.241Z" fill="url(#fill8)" fill-rule="evenodd"/><path d="M678 21.3339C678 13.4175 684.417 7 692.334 7L1255.67 7C1263.58 7 1270 13.4175 1270 21.3339L1270 78.6661C1270 86.5825 1263.58 93 1255.67 93L692.334 93C684.417 93 678 86.5825 678 78.6661Z" fill="url(#fill9)" fill-rule="evenodd"/><g filter="url(#fx0)" transform="translate(8 494)"><g><path d="M7 42.6669C7 22.9686 22.9686 7 42.6668 7L1226.33 7C1246.03 7 1262 22.9686 1262 42.6669L1262 185.333C1262 205.031 1246.03 221 1226.33 221L42.6668 221C22.9686 221 7 205.031 7 185.333Z" fill="#FF0000" fill-rule="evenodd"/></g></g><path d="M15 534.667C15 514.969 30.9686 499 50.6668 499L1234.33 499C1254.03 499 1270 514.969 1270 534.667L1270 677.333C1270 697.031 1254.03 713 1234.33 713L50.6668 713C30.9686 713 15 697.031 15 677.333Z" fill="url(#fill10)" fill-rule="evenodd"/><g filter="url(#fx1)" transform="translate(8 97)"><g><path d="M7 31.1549C7 17.8145 17.8145 7 31.1548 7L285.845 7C299.185 7 310 17.8145 310 31.1549L310 82.8451C310 96.1855 299.185 107 285.845 107L31.1548 107C17.8145 107 7 96.1855 7 82.8451Z" fill="#FF0000" fill-rule="evenodd"/></g></g><path d="M15 126.155C15 112.814 25.8145 102 39.1548 102L293.845 102C307.185 102 318 112.814 318 126.155L318 177.845C318 191.185 307.185 202 293.845 202L39.1548 202C25.8145 202 15 191.185 15 177.845Z" fill="url(#fill11)" fill-rule="evenodd"/><g filter="url(#fx2)" transform="translate(327 97)"><g><path d="M7 31.1549C7 17.8145 17.8145 7 31.1548 7L285.845 7C299.185 7 310 17.8145 310 31.1549L310 82.8451C310 96.1855 299.185 107 285.845 107L31.1548 107C17.8145 107 7 96.1855 7 82.8451Z" fill="#FF0000" fill-rule="evenodd"/></g></g><path d="M334 126.155C334 112.814 344.814 102 358.155 102L612.845 102C626.185 102 637 112.814 637 126.155L637 177.845C637 191.185 626.185 202 612.845 202L358.155 202C344.814 202 334 191.185 334 177.845Z" fill="url(#fill12)" fill-rule="evenodd"/><g filter="url(#fx3)" transform="translate(640 97)"><g><path d="M7 31.1551C7 17.8146 17.8146 7 31.155 7L284.845 7C298.185 7 309 17.8146 309 31.1551L309 82.8449C309 96.1854 298.185 107 284.845 107L31.155 107C17.8146 107 7 96.1854 7 82.8449Z" fill="#FF0000" fill-rule="evenodd"/></g></g><path d="M647 126.155C647 112.815 657.815 102 671.155 102L924.845 102C938.185 102 949 112.815 949 126.155L949 177.845C949 191.185 938.185 202 924.845 202L671.155 202C657.815 202 647 191.185 647 177.845Z" fill="url(#fill13)" fill-rule="evenodd"/><g filter="url(#fx4)" transform="translate(961 97)"><g><path d="M7 31.1551C7 17.8146 17.8146 7 31.155 7L284.845 7C298.185 7 309 17.8146 309 31.1551L309 82.8449C309 96.1854 298.185 107 284.845 107L31.155 107C17.8146 107 7 96.1854 7 82.8449Z" fill="#FF0000" fill-rule="evenodd"/></g></g><path d="M968 126.155C968 112.815 978.815 102 992.155 102L1245.84 102C1259.19 102 1270 112.815 1270 126.155L1270 177.845C1270 191.185 1259.19 202 1245.84 202L992.155 202C978.815 202 968 191.185 968 177.845Z" fill="url(#fill14)" fill-rule="evenodd"/></g></svg>